<svg width="25" height="25" viewBox="0 0 25 25" fill="none" xmlns="http://www.w3.org/2000/svg">
<path fill-rule="evenodd" clip-rule="evenodd" d="M14.3454 2.64534C13.811 0.451554 10.689 0.451554 10.1546 2.64534C10.0748 2.97499 9.91835 3.28115 9.69789 3.5389C9.47743 3.79665 9.19923 3.99871 8.88593 4.12863C8.57262 4.25856 8.23307 4.31267 7.8949 4.28658C7.55673 4.26049 7.2295 4.15493 6.93983 3.97848C5.0104 2.80284 2.80252 5.01069 3.97818 6.94009C4.73758 8.18605 4.06396 9.8117 2.64642 10.1562C0.451194 10.6892 0.451194 13.8125 2.64642 14.3441C2.97616 14.424 3.28238 14.5806 3.54013 14.8013C3.79789 15.0219 3.99989 15.3003 4.12969 15.6137C4.25949 15.9272 4.31343 16.2669 4.2871 16.6051C4.26077 16.9434 4.15492 17.2707 3.97818 17.5603C2.80252 19.4897 5.0104 21.6975 6.93983 20.5219C7.22945 20.3451 7.55671 20.2393 7.89497 20.213C8.23323 20.1866 8.57293 20.2406 8.8864 20.3704C9.19987 20.5002 9.47825 20.7022 9.69888 20.9599C9.91951 21.2177 10.0761 21.5239 10.156 21.8536C10.689 24.0488 13.8124 24.0488 14.344 21.8536C14.4241 21.524 14.5809 21.218 14.8016 20.9605C15.0223 20.7029 15.3006 20.501 15.614 20.3713C15.9274 20.2415 16.2669 20.1875 16.6051 20.2137C16.9433 20.2398 17.2705 20.3454 17.5602 20.5219C19.4896 21.6975 21.6975 19.4897 20.5218 17.5603C20.3454 17.2706 20.2398 16.9434 20.2136 16.6052C20.1875 16.267 20.2414 15.9275 20.3712 15.6141C20.501 15.3007 20.7028 15.0224 20.9604 14.8017C21.218 14.5811 21.524 14.4243 21.8536 14.3441C24.0488 13.8111 24.0488 10.6878 21.8536 10.1562C21.5238 10.0764 21.2176 9.91972 20.9599 9.6991C20.7021 9.47847 20.5001 9.20009 20.3703 8.88663C20.2405 8.57316 20.1866 8.23347 20.2129 7.89521C20.2392 7.55696 20.3451 7.2297 20.5218 6.94009C21.6975 5.01069 19.4896 2.80284 17.5602 3.97848C17.2706 4.15523 16.9433 4.26107 16.605 4.2874C16.2668 4.31373 15.9271 4.2598 15.6136 4.12999C15.3001 4.00019 15.0217 3.7982 14.8011 3.54045C14.5805 3.2827 14.4239 2.97648 14.344 2.64674L14.3454 2.64534Z" stroke="white" stroke-width="2"/>
<path d="M14.75 12.25C14.75 13.6307 13.6307 14.75 12.25 14.75C10.8693 14.75 9.75 13.6307 9.75 12.25C9.75 10.8693 10.8693 9.75 12.25 9.75C13.6307 9.75 14.75 10.8693 14.75 12.25Z" stroke="white" stroke-width="2"/>
</svg>
